<svg id="Layer_1" data-name="Layer 1" xmlns="http://www.w3.org/2000/svg" viewBox="0 0 284.72 280.27"><defs><style>.cls-1{font-size:150.13px;font-family:JuliusSansOne-Regular, Julius Sans One;}.cls-1,.cls-2{fill:#fff;}</style></defs><title>logo</title><text class="cls-1" transform="translate(34.5 129.64)">R</text><path class="cls-2" d="M104.3,290.29c7.69-8,15.47-15.92,23.2-23.89l23.35-23.74c15.58-15.81,31.29-31.5,46.92-47.25s31.44-31.34,47.25-46.93l23.74-23.35c8-7.73,15.88-15.51,23.89-23.2-7.69,8-15.47,15.92-23.2,23.89L246.1,149.57c-15.58,15.81-31.28,31.5-46.93,47.25s-31.44,31.34-47.25,46.92l-23.74,23.35C120.22,274.82,112.3,282.6,104.3,290.29Z" transform="translate(-56.11 -53.42)"/><text class="cls-1" transform="translate(137.55 246.05)">B</text><path class="cls-2" d="M58.11,55.42l.3,8.09.23,8.09.45,16.19c.23,10.79.45,21.58.58,32.37s.23,21.58.33,32.37l.11,32.37L60,217.28c-.11,10.79-.15,21.58-.33,32.37s-.35,21.58-.58,32.37l-.45,16.19-.23,8.09-.3,8.09-.3-8.09-.23-8.09L57.13,282c-.23-10.79-.45-21.58-.58-32.37s-.22-21.58-.33-32.37l-.11-32.37.11-32.37c.11-10.79.15-21.58.33-32.37s.35-21.58.58-32.37l.45-16.19.23-8.09Z" transform="translate(-56.11 -53.42)"/><path class="cls-2" d="M338.83,55.42l.3,8.09.23,8.09.45,16.19c.23,10.79.45,21.58.58,32.37s.23,21.58.33,32.37l.11,32.37-.11,32.37c-.11,10.79-.15,21.58-.33,32.37s-.35,21.58-.58,32.37l-.45,16.19-.23,8.09-.3,8.09-.3-8.09-.23-8.09L337.85,282c-.23-10.79-.45-21.58-.58-32.37s-.22-21.58-.33-32.37l-.11-32.37.11-32.37c.11-10.79.15-21.58.33-32.37s.35-21.58.58-32.37l.45-16.19.23-8.09Z" transform="translate(-56.11 -53.42)"/><path class="cls-2" d="M79.31,55.42c20.43-.83,40.86-1.26,61.29-1.55,10.21-.18,20.43-.23,30.64-.33l30.64-.11,30.64.11c10.21.11,20.43.15,30.64.33,20.43.29,40.86.73,61.29,1.56C304,56.25,283.6,56.68,263.17,57c-10.21.19-20.43.22-30.64.33l-30.64.11-30.64-.11c-10.21-.11-20.43-.15-30.64-.33C120.16,56.68,99.73,56.24,79.31,55.42Z" transform="translate(-56.11 -53.42)"/><path class="cls-2" d="M79.31,322.69c20.43-.83,40.86-1.26,61.29-1.55,10.21-.18,20.43-.23,30.64-.33l30.64-.11,30.64.11c10.21.11,20.43.15,30.64.33,20.43.29,40.86.73,61.29,1.56-20.43.83-40.86,1.27-61.29,1.56-10.21.19-20.43.22-30.64.33l-30.64.11-30.64-.11c-10.21-.11-20.43-.15-30.64-.33C120.16,323.95,99.73,323.52,79.31,322.69Z" transform="translate(-56.11 -53.42)"/></svg>